<svg version="1.1" id="Capa_1" xmlns="http://www.w3.org/2000/svg" xmlns:xlink="http://www.w3.org/1999/xlink" x="0px" y="0px"
	 viewBox="0 0 490 490" style="enable-background:new 0 0 490 490;" xml:space="preserve">
<g>
	<g>
		<g>
			<path fill="#ffffff" d="M56.3,386.7H377c4.3-11.6,10.5-22.9,19-32.6H62.1c-34.2,0-61.7,30.3-61.7,67.9s27.6,68,61.7,68H396
				c-8.5-9.7-14.8-20.6-19-32.6H56.3c-5.4,0-10.1-4.3-10.1-10.1c0-5.4,4.3-10.1,10.1-10.1h316.1c-1.6-10.5-1.6-21,0-31.1H56.3
				c-5.4,0-10.1-4.3-10.1-10.1C46.2,391,50.9,386.7,56.3,386.7z"/>
			<path fill="#ffffff" d="M427.9,177.4H94c8.5,9.7,14.8,20.6,19,32.6h318c5.4,0,10.1,4.3,10.1,10.1c0,5.4-4.3,10.1-10.1,10.1H117.6
				c1.6,10.5,1.6,21,0,31.1H431c5.4,0,10.1,4.3,10.1,10.1c0,5.4-4.3,10.1-10.1,10.1H113c-4.3,11.6-10.5,22.9-19,32.6h333.9
				c34.2,0,61.7-30.3,61.7-67.9S462,177.4,427.9,177.4z"/>
			<path fill="#ffffff" d="M62.1,136.7H396c-8.5-9.7-14.8-20.6-19-32.6H61.3c-5.4,0-10.1-4.3-10.1-10.1s4.3-10.1,10.1-10.1h311
				c-1.6-10.5-1.6-21,0-31.1h-311c-5.4,0-10.1-4.3-10.1-10.1s4.3-10.1,10.1-10.1H377C381.3,21,387.5,9.7,396,0H62.1
				C28,0.8,0.4,31.1,0.4,68.7S28,136.7,62.1,136.7z"/>
		</g>
	</g>
</g>
<g>
</g>
<g>
</g>
<g>
</g>
<g>
</g>
<g>
</g>
<g>
</g>
<g>
</g>
<g>
</g>
<g>
</g>
<g>
</g>
<g>
</g>
<g>
</g>
<g>
</g>
<g>
</g>
<g>
</g>
</svg>
